<?xml version="1.0" encoding="UTF-8"?>
<svg xmlns="http://www.w3.org/2000/svg" xmlns:xlink="http://www.w3.org/1999/xlink" version="1.1" viewBox="0 0 1244 202">
  <defs>
    <style>
      .cls-1 {
        fill: none;
      }

      .cls-2 {
        mask: url(#mask);
      }

      .cls-3 {
        fill: #fffdfd;
      }

      .cls-4 {
        clip-path: url(#clippath);
      }
    </style>
    <mask id="mask" x="0" y="0" width="1244" height="202.04" maskUnits="userSpaceOnUse">
      <rect x="229" width="995" height="202"/>
    </mask>
    <clipPath id="clippath">
      <rect class="cls-1" width="1244" height="202"/>
    </clipPath>
  </defs>
  <!-- Generator: Adobe Illustrator 28.6.0, SVG Export Plug-In . SVG Version: 1.2.0 Build 709)  -->
  <g>
    <g id="Layer_1">
      <g class="cls-2">
        <g class="cls-4">
          <path class="cls-3" d="M385.11,13.25c0,7.33-5.91,13.25-13.23,13.25s-13.23-5.92-13.23-13.25,5.91-13.25,13.23-13.25,13.23,5.92,13.23,13.25ZM358.62,158.69V43.36h26.45v115.37h-26.45v-.05Z"/>
          <path class="cls-3" d="M406.39,158.68V43.36h26.45v31.52c4.27-18.22,15.54-31.52,37.27-31.52s32.45,9.93,33.63,31.75c4-18.22,15.36-31.75,37.36-31.75s33.54,11.11,33.54,35.07v80.3h-26.45v-72.24c0-15.85-6.64-23.91-22.22-23.91s-22.22,12.57-22.22,31.52v64.68h-26.45v-72.24c0-15.85-6.64-23.91-22.22-23.91s-22.22,12.57-22.22,31.52v64.68h-26.45v-.14Z"/>
          <path class="cls-3" d="M648.71,139.51c16.54,0,29.09-12.57,29.09-38.62s-12.54-38.62-29.09-38.62c-18.68,0-26.45,12.57-26.45,31.52v14.21c0,18.95,7.82,31.52,26.45,31.52ZM595.81,202V43.36h26.45v30.79c3.77-17.99,13.45-30.79,36.4-30.79,27.91,0,46.31,20.36,46.31,57.57s-17.95,57.89-46.31,57.89c-22.91,0-32.59-13.12-36.4-30.88v74.1h-26.45v-.05Z"/>
          <rect class="cls-3" x="724.89" width="26.45" height="158.69"/>
          <path class="cls-3" d="M854.32,101.12c0-26.78-11.04-38.12-28.31-38.12s-28,11.39-28,38.12,11,37.89,28,37.89,28.31-11.39,28.31-37.89ZM770.02,101.12c0-35.98,22.72-57.8,55.81-57.8s56.22,21.77,56.22,57.8-22.68,57.66-56.22,57.66-55.81-21.91-55.81-57.66Z"/>
          <path class="cls-3" d="M882.46,184.51l12.54-21.32c6.14,8.74,13.23,15.39,23.86,15.39,9,0,16.27-1.64,20.5-14.44l1.73-5.42h-16.32l-38.04-115.37h29.09l20.82,65.36,8.27,30.79,8.27-30.79,20.54-65.36h29.31l-43.77,127.17c-8.27,23.23-21.72,31.52-40.4,31.52-16.54,0-30-8.52-36.4-17.54Z"/>
          <path class="cls-3" d="M1031.84,90.41h59.08c-1.91-18.22-12.27-28.19-29.77-28.19-16.32,0-27.18,9.47-29.31,28.19ZM1006.35,101.07c0-36.26,24.36-57.8,56.72-57.8s51.77,23.27,51.77,52.56c0,4.28-.45,9.25-.95,11.61h-82.26c1.41,20.59,13.45,31.75,31.68,31.75,20.09,0,29.09-10.43,33.31-20.13l16.32,17.03c-8.73,13.25-24.31,22.59-49.86,22.59-34.27,0-56.72-21.63-56.72-57.66v.05Z"/>
          <path class="cls-3" d="M1136.1,158.68V43.36h26.45v32.7c4.27-18.49,15.82-32.7,36.4-32.7,14.41,0,25.04,7.11,25.04,24.14,0,11.11-3.09,19.4-5.18,22.96h-27.18c3.77-3.78,7.32-11.39,7.32-17.99s-3.09-11.61-10.86-11.61c-13.23,0-25.54,15.17-25.54,34.34v63.49h-26.45Z"/>
          <path class="cls-3" d="M284.72,158.91c-21.59,0-47.45-9.2-55.4-34.93l-.32-1.09,23.59-7.38.27,1.18c2.05,9.47,13.04,19.63,32.31,19.63,14.36,0,29.72-5.65,29.72-21.54,0-16.85-12.73-19.68-32-23.96-3-.68-6.18-1.37-9.41-2.19-33.63-8.11-38.18-26.83-38.18-44.09,0-25.37,21.91-44.54,50.95-44.54,22.72,0,40.63,12.8,46.77,33.43l.32,1.14-23.27,5.69-.32-1c-2.09-6.33-8.23-16.94-25.68-16.94-14.68,0-24.95,9.15-24.95,22.23,0,17.35,15.59,20.81,33.68,24.82l2.95.68c31.59,7.47,43.36,19.13,43.36,43,0,21.13-14.23,45.87-54.36,45.87h-.05Z"/>
        </g>
      </g>
      <path class="cls-3" d="M0,0v159h159V0H0ZM23.13,64.44c0-22.8,19.53-41.31,43.54-41.31h12.58c2.16.05,3.95,1.77,3.95,3.96s-1.74,3.96-3.95,3.96h-12.58c-19.64,0-35.59,14.97-35.59,33.44s15.95,33.44,35.59,33.44h25.96c2.16,0,3.9-1.51,3.9-3.49s-1.84-3.76-3.9-3.76h-27.12c-15.16,0-27.48-11.74-27.48-26.19s12.32-26.19,27.48-26.19h46.7c2.21,0,4,1.77,4,3.96s-1.79,3.96-4,3.96h-46.7c-10.74,0-19.53,8.19-19.53,18.26s8.74,18.26,19.53,18.26h27.12c6.42,0,11.85,5.43,11.85,11.68s-5.32,11.37-11.85,11.37h-25.96v-.05c-24.01,0-43.54-18.52-43.54-41.31ZM92.33,135.88h-12.58c-2.16,0-3.95-1.77-3.95-3.96s1.74-3.96,3.95-3.96h12.58c19.64,0,35.59-14.97,35.59-33.44s-15.95-33.44-35.59-33.44h-25.96c-2.16,0-3.9,1.51-3.9,3.49s1.84,3.76,3.9,3.76h27.12c15.16,0,27.48,11.74,27.48,26.19s-12.32,26.19-27.48,26.19h-46.7c-2.21,0-4-1.77-4-3.96s1.79-3.96,4-3.96h46.7c10.74,0,19.53-8.19,19.53-18.26s-8.74-18.26-19.53-18.26h-27.12c-6.42,0-11.85-5.43-11.85-11.68s5.32-11.37,11.85-11.37h25.96v.05c24.01,0,43.54,18.52,43.54,41.31s-19.53,41.31-43.54,41.31Z"/>
    </g>
  </g>
</svg>