<svg width="1244" height="202" viewBox="0 0 1244 202" fill="none" xmlns="http://www.w3.org/2000/svg">
<g clip-path="url(#clip0_388_23808)">
<path d="M358.617 158.685V43.3605H385.068V158.731H358.617V158.685ZM385.114 13.2541C385.114 20.5871 379.205 26.5082 371.888 26.5082C364.571 26.5082 358.663 20.5871 358.663 13.2541C358.663 5.92108 364.571 0 371.888 0C379.205 0 385.114 5.92108 385.114 13.2541Z" fill="#9773FF"/>
<path d="M406.387 158.684V43.3594H432.838V74.8778C437.11 56.659 448.381 43.3594 470.105 43.3594C491.83 43.3594 502.555 53.2886 503.737 75.1055C507.736 56.8868 519.099 43.3594 541.096 43.3594C563.093 43.3594 574.636 54.4728 574.636 78.4304V158.729H548.185V86.4922C548.185 70.6419 541.55 62.5801 525.961 62.5801C510.372 62.5801 503.737 75.151 503.737 94.0985V158.775H477.286V86.5377C477.286 70.6874 470.651 62.6257 455.062 62.6257C439.473 62.6257 432.838 75.1966 432.838 94.144V158.82H406.387V158.684Z" fill="#9773FF"/>
<path d="M595.812 201.999V43.3594H622.263V74.149C626.036 56.158 635.716 43.3594 658.668 43.3594C686.573 43.3594 704.979 63.7188 704.979 100.931C704.979 138.142 687.027 158.82 658.668 158.82C635.762 158.82 626.081 145.703 622.263 127.94V202.044H595.812V201.999ZM648.714 139.509C665.258 139.509 677.801 126.938 677.801 100.885C677.801 74.8322 665.258 62.2613 648.714 62.2613C630.035 62.2613 622.263 74.8322 622.263 93.7797V107.99C622.263 126.938 630.081 139.509 648.714 139.509Z" fill="#9773FF"/>
<path d="M724.887 158.685V0H751.338V158.685H724.887Z" fill="#9773FF"/>
<path d="M770.016 101.115C770.016 65.1333 792.74 43.3164 825.826 43.3164C858.913 43.3164 882.046 65.0878 882.046 101.115C882.046 137.143 859.367 158.778 825.826 158.778C792.285 158.778 770.016 136.87 770.016 101.115ZM854.322 101.115C854.322 74.3338 843.278 62.9926 826.008 62.9926C808.738 62.9926 798.012 74.3793 798.012 101.115C798.012 127.851 809.01 139.01 826.008 139.01C843.006 139.01 854.322 127.624 854.322 101.115Z" fill="#9773FF"/>
<path d="M882.457 184.509L895.001 163.193C901.136 171.938 908.226 178.588 918.861 178.588C927.86 178.588 935.132 176.948 939.358 164.149L941.085 158.729H924.769L886.729 43.3594H915.816L936.631 108.719L944.903 139.509L953.175 108.719L973.717 43.3594H1003.03L959.265 170.526C950.993 193.755 937.54 202.044 918.861 202.044C902.318 202.044 888.865 193.527 882.457 184.509Z" fill="#9773FF"/>
<path d="M1006.35 101.068C1006.35 64.8132 1030.71 43.2695 1063.07 43.2695C1095.43 43.2695 1114.83 66.5439 1114.83 95.8305C1114.83 100.112 1114.38 105.077 1113.88 107.445H1031.62C1033.03 128.032 1045.07 139.191 1063.29 139.191C1083.38 139.191 1092.38 128.761 1096.61 119.059L1112.92 136.094C1104.2 149.348 1088.61 158.685 1063.07 158.685C1028.8 158.685 1006.35 137.05 1006.35 101.023V101.068ZM1031.84 90.4105H1090.93C1089.02 72.1917 1078.66 62.217 1061.16 62.217C1044.84 62.217 1033.98 71.6907 1031.84 90.4105Z" fill="#9773FF"/>
<path d="M1136.1 158.684V43.3594H1162.55V76.062C1166.82 57.57 1178.37 43.3594 1198.96 43.3594C1213.36 43.3594 1224 50.4647 1224 67.4992C1224 78.6126 1220.91 86.9021 1218.82 90.4548H1191.64C1195.41 86.6744 1198.96 79.0681 1198.96 72.4638C1198.96 65.8595 1195.87 60.8493 1188.09 60.8493C1174.87 60.8493 1162.55 76.0164 1162.55 95.1916V158.684H1136.1Z" fill="#9773FF"/>
<path d="M284.72 158.913C263.132 158.913 237.272 149.712 229.318 123.978L229 122.885L252.588 115.507L252.86 116.691C254.906 126.165 265.904 136.322 285.174 136.322C299.536 136.322 314.897 130.674 314.897 114.778C314.897 97.9256 302.172 95.1017 282.902 90.8203C279.902 90.1371 276.721 89.4539 273.494 88.634C239.862 80.5267 235.317 61.807 235.317 44.5448C235.317 19.1752 257.223 0 286.265 0C308.989 0 326.896 12.7986 333.031 33.4313L333.349 34.57L310.08 40.2634L309.762 39.2613C307.671 32.9303 301.536 22.3179 284.083 22.3179C269.404 22.3179 259.132 31.4728 259.132 44.5448C259.132 61.8981 274.721 65.3596 292.809 69.3678L295.764 70.051C327.35 77.5206 339.121 89.1806 339.121 113.047C339.121 134.181 324.896 158.913 284.765 158.913H284.72Z" fill="#9773FF"/>
</g>
<rect width="159" height="159" fill="#9773FF"/>
<path d="M92.3338 53.1953H66.3768C59.848 53.1953 54.5303 58.3074 54.5303 64.5671C54.5303 70.8268 59.9533 76.2518 66.3768 76.2518H93.4921C104.286 76.2518 113.026 84.4416 113.026 94.5092C113.026 104.577 104.233 112.767 93.4921 112.767H46.7906C44.5792 112.767 42.7891 114.54 42.7891 116.731C42.7891 118.922 44.5792 120.696 46.7906 120.696H93.4921C108.656 120.696 120.976 108.959 120.976 94.5092C120.976 80.0598 108.656 68.3229 93.4921 68.3229H66.3768C64.3234 68.3229 62.4806 66.5493 62.4806 64.5671C62.4806 62.5848 64.2181 61.0721 66.3768 61.0721H92.3338C111.973 61.0721 127.926 76.0432 127.926 94.5092C127.926 112.975 111.973 127.946 92.3338 127.946H79.7502C77.5388 127.946 75.8013 129.72 75.8013 131.911C75.8013 134.102 77.5915 135.875 79.7502 135.875H92.3338C116.343 135.875 135.876 117.357 135.876 94.5614C135.876 71.7657 116.343 53.2475 92.3338 53.2475V53.1953Z" fill="#FFFDFD"/>
<path d="M66.6753 105.809H92.6324C99.1611 105.809 104.479 100.697 104.479 94.4371C104.479 88.1775 99.0558 82.7524 92.6324 82.7524H65.517C54.7235 82.7524 45.9834 74.5626 45.9834 64.495C45.9834 54.4273 54.7762 46.2376 65.517 46.2376H112.219C114.43 46.2376 116.22 44.464 116.22 42.2731C116.22 40.0822 114.43 38.3086 112.219 38.3086H65.517C50.3535 38.3086 38.0331 50.0455 38.0331 64.495C38.0331 78.9444 50.3535 90.6813 65.517 90.6813H92.6324C94.6858 90.6813 96.5285 92.4549 96.5285 94.4371C96.5285 96.4194 94.7911 97.9321 92.6324 97.9321H66.6753C47.0364 97.9321 31.0831 82.9611 31.0831 64.495C31.0831 46.0289 47.0364 31.0578 66.6753 31.0578H79.259C81.4703 31.0578 83.2078 29.2843 83.2078 27.0934C83.2078 24.9025 81.4177 23.1811 79.259 23.1289H66.6753C42.6664 23.1289 23.1328 41.6471 23.1328 64.4428C23.1328 87.2385 42.6664 105.757 66.6753 105.757V105.809Z" fill="#FFFDFD"/>
<defs>
<clipPath id="clip0_388_23808">
<rect width="995" height="202" fill="white" transform="translate(229)"/>
</clipPath>
</defs>
</svg>
