<svg width="995" height="202" viewBox="0 0 995 202" fill="none" xmlns="http://www.w3.org/2000/svg">
<g clip-path="url(#clip0_388_23761)">
<path d="M129.617 158.685V43.3605H156.068V158.731H129.617V158.685ZM156.114 13.2541C156.114 20.5871 150.205 26.5082 142.888 26.5082C135.571 26.5082 129.663 20.5871 129.663 13.2541C129.663 5.92108 135.571 0 142.888 0C150.205 0 156.114 5.92108 156.114 13.2541Z" fill="#FFFDFD"/>
<path d="M177.387 158.684V43.3594H203.838V74.8778C208.11 56.659 219.381 43.3594 241.105 43.3594C262.83 43.3594 273.555 53.2886 274.737 75.1055C278.736 56.8868 290.099 43.3594 312.096 43.3594C334.093 43.3594 345.636 54.4728 345.636 78.4304V158.729H319.185V86.4922C319.185 70.6419 312.55 62.5801 296.961 62.5801C281.372 62.5801 274.737 75.151 274.737 94.0985V158.775H248.286V86.5377C248.286 70.6874 241.651 62.6257 226.062 62.6257C210.473 62.6257 203.838 75.1966 203.838 94.144V158.82H177.387V158.684Z" fill="#FFFDFD"/>
<path d="M366.812 201.999V43.3594H393.263V74.149C397.036 56.158 406.716 43.3594 429.668 43.3594C457.573 43.3594 475.979 63.7188 475.979 100.931C475.979 138.142 458.027 158.82 429.668 158.82C406.762 158.82 397.081 145.703 393.263 127.94V202.044H366.812V201.999ZM419.714 139.509C436.258 139.509 448.801 126.938 448.801 100.885C448.801 74.8322 436.258 62.2613 419.714 62.2613C401.035 62.2613 393.263 74.8322 393.263 93.7797V107.99C393.263 126.938 401.081 139.509 419.714 139.509Z" fill="#FFFDFD"/>
<path d="M495.887 158.685V0H522.338V158.685H495.887Z" fill="#FFFDFD"/>
<path d="M541.016 101.115C541.016 65.1333 563.74 43.3164 596.826 43.3164C629.913 43.3164 653.046 65.0878 653.046 101.115C653.046 137.143 630.367 158.778 596.826 158.778C563.285 158.778 541.016 136.87 541.016 101.115ZM625.322 101.115C625.322 74.3338 614.278 62.9926 597.008 62.9926C579.738 62.9926 569.012 74.3793 569.012 101.115C569.012 127.851 580.01 139.01 597.008 139.01C614.006 139.01 625.322 127.624 625.322 101.115Z" fill="#FFFDFD"/>
<path d="M653.457 184.509L666.001 163.193C672.136 171.938 679.226 178.588 689.861 178.588C698.86 178.588 706.132 176.948 710.358 164.149L712.085 158.729H695.769L657.729 43.3594H686.816L707.631 108.719L715.903 139.509L724.175 108.719L744.717 43.3594H774.031L730.265 170.526C721.993 193.755 708.54 202.044 689.861 202.044C673.318 202.044 659.865 193.527 653.457 184.509Z" fill="#FFFDFD"/>
<path d="M777.348 101.068C777.348 64.8132 801.708 43.2695 834.067 43.2695C866.426 43.2695 885.833 66.5439 885.833 95.8305C885.833 100.112 885.378 105.077 884.878 107.445H802.617C804.026 128.032 816.07 139.191 834.294 139.191C854.383 139.191 863.381 128.761 867.608 119.059L883.924 136.094C875.198 149.348 859.609 158.685 834.067 158.685C799.799 158.685 777.348 137.05 777.348 101.023V101.068ZM802.844 90.4105H861.927C860.018 72.1917 849.656 62.217 832.158 62.217C815.842 62.217 804.98 71.6907 802.844 90.4105Z" fill="#FFFDFD"/>
<path d="M907.102 158.684V43.3594H933.553V76.062C937.825 57.57 949.369 43.3594 969.957 43.3594C984.364 43.3594 994.999 50.4647 994.999 67.4992C994.999 78.6126 991.908 86.9021 989.817 90.4548H962.639C966.412 86.6744 969.957 79.0681 969.957 72.4638C969.957 65.8595 966.866 60.8493 959.094 60.8493C945.869 60.8493 933.553 76.0164 933.553 95.1916V158.684H907.102Z" fill="#FFFDFD"/>
<path d="M55.7196 158.913C34.1317 158.913 8.27159 149.712 0.318138 123.978L0 122.885L23.5877 115.507L23.8604 116.691C25.9055 126.165 36.904 136.322 56.1741 136.322C70.5358 136.322 85.8973 130.674 85.8973 114.778C85.8973 97.9256 73.1718 95.1017 53.9017 90.8203C50.9021 90.1371 47.7207 89.4539 44.4939 88.634C10.8621 80.5267 6.31732 61.807 6.31732 44.5448C6.31732 19.1752 28.2234 0 57.2649 0C79.989 0 97.8957 12.7986 104.031 33.4313L104.349 34.57L81.0798 40.2634L80.7617 39.2613C78.671 32.9303 72.5355 22.3179 55.0834 22.3179C40.4036 22.3179 30.1322 31.4728 30.1322 44.5448C30.1322 61.8981 45.721 65.3596 63.8094 69.3678L66.7636 70.051C98.3502 77.5206 110.121 89.1806 110.121 113.047C110.121 134.181 95.896 158.913 55.7651 158.913H55.7196Z" fill="#FFFDFD"/>
</g>
<defs>
<clipPath id="clip0_388_23761">
<rect width="995" height="202" fill="white"/>
</clipPath>
</defs>
</svg>
