<svg width="275" height="275" viewBox="0 0 275 275" fill="none" xmlns="http://www.w3.org/2000/svg">
<rect width="275" height="275" fill="#0D0A16"/>
<path d="M159.691 92H114.796C103.505 92 94.3071 100.842 94.3071 111.668C94.3071 122.495 103.687 131.878 114.796 131.878H161.694C180.362 131.878 195.479 146.042 195.479 163.455C195.479 180.868 180.271 195.032 161.694 195.032H80.9208C77.0962 195.032 74 198.1 74 201.889C74 205.678 77.0962 208.746 80.9208 208.746H161.694C187.92 208.746 209.229 188.446 209.229 163.455C209.229 138.464 187.92 118.164 161.694 118.164H114.796C111.245 118.164 108.058 115.097 108.058 111.668C108.058 108.24 111.063 105.623 114.796 105.623H159.691C193.657 105.623 221.249 131.517 221.249 163.455C221.249 195.393 193.657 221.286 159.691 221.286H137.926C134.102 221.286 131.097 224.354 131.097 228.143C131.097 231.932 134.193 235 137.926 235H159.691C201.215 235 235 202.972 235 163.545C235 124.119 201.215 92.0902 159.691 92.0902V92Z" fill="#FFFDFD"/>
<path d="M115.309 183H160.204C171.495 183 180.693 174.158 180.693 163.332C180.693 152.505 171.313 143.122 160.204 143.122H113.306C94.638 143.122 79.5215 128.958 79.5215 111.545C79.5215 94.1325 94.7291 79.9678 113.306 79.9678H194.079C197.904 79.9678 201 76.9003 201 73.111C201 69.3218 197.904 66.2543 194.079 66.2543H113.306C87.0798 66.2543 65.7709 86.5539 65.7709 111.545C65.7709 136.536 87.0798 156.836 113.306 156.836H160.204C163.755 156.836 166.942 159.903 166.942 163.332C166.942 166.76 163.937 169.377 160.204 169.377H115.309C81.3428 169.377 53.7506 143.483 53.7506 111.545C53.7506 79.6069 81.3428 53.7136 115.309 53.7136H137.074C140.898 53.7136 143.903 50.6461 143.903 46.8568C143.903 43.0675 140.807 40.0902 137.074 40H115.309C73.7845 40 40 72.0284 40 111.455C40 150.881 73.7845 182.91 115.309 182.91V183Z" fill="#FFFDFD"/>
</svg>
